<?xml version="1.0" encoding="utf-8"?>
<!-- Generator: Adobe Illustrator 23.0.2, SVG Export Plug-In . SVG Version: 6.00 Build 0)  -->
<svg version="1.1" xmlns="http://www.w3.org/2000/svg" xmlns:xlink="http://www.w3.org/1999/xlink" x="0px" y="0px"
	 viewBox="0 0 256 272.9" style="enable-background:new 0 0 256 272.9;" xml:space="preserve">
<style type="text/css">
	.st0{fill:#FFFFFF;}
	.st1{fill:#007257;}
</style>
<g id="White">
	<g>
		<path class="st0" d="M240.4,104.4l4.2-2.5V80.6l-3.7-3.3V65.6L248,60V41l-7.4-7.5v-7.9L221.2,7.2L187.3,0l-24.6,6.2l-7.2-1.1
			l-24.3,22.6v6.6l-4.6,8.2v18l7.1,4.8v12l-3.7,3.3V84L92.3,37.7H0.1l21,48.8v137.9L0,272.9h97.5v-84.6l70.6,84.6H256v-25.4h-15.6
			L240.4,104.4z M234.8,96.2l-3.7,2.5v164.2h-58.3l-85.1-102v102H15.1L31,226.4v-142L15.1,47.6h72.4l56.5,69.2V98.7l-4.2-2.5V85.1
			l3.7-3.3V60l-7.1-4.8V45l4.6-8.2v-4.7l6.9-6l3.9,3.4v-6.8l7.1-7.2l8.9,1.3l4.7,5.2l0-8.3l14.7-3.6l14.2,3.6l-0.1,8l4.8-7.3
			l10.2,1.8L220,20l0.1,3.3l3.5-0.1l7.4,6.7v7.7l7.1,7.5v10.2l-7.1,5.6v21l3.7,3.3V96.2z M242.3,254.7h2.1l1.7,4.4l1.8-4.4h2.1
			l1.2,8.2h-2.1l-0.6-4.7h0l-2,4.7h-0.9l-1.9-4.7h0l-0.7,4.7h-2.1L242.3,254.7z M240.6,254.7v1.8h-1.8v6.4h-2.1v-6.4h-1.8v-1.8
			H240.6z"/>
		<polygon class="st0" points="181.9,30.7 185.6,27.1 185.6,15.7 176.1,18 176.1,27.5 171.7,32 171.7,36.2 181.9,34.1 		"/>
		<polygon class="st0" points="165,80 185.6,77.5 185.6,42.4 178.9,43.6 178.9,64.3 170.5,65.6 170.5,45 165.8,45.8 165,46 		"/>
		<polygon class="st0" points="155.6,70.2 150.5,74 150.5,55.4 147.2,58.2 147.2,84.1 143.5,87.4 143.5,93.4 159.6,81.1 159.6,47.4 
			155.6,50.9 		"/>
		<polygon class="st0" points="165,88.4 165,142.5 185.6,167.7 185.6,86.1 		"/>
		<polygon class="st0" points="147.7,121.3 159.6,135.9 159.6,90.3 147.7,99 		"/>
		<polygon class="st0" points="165.6,20.9 160.9,20.2 155.2,25 155.2,34.3 151.5,39.3 151.5,43.4 156.1,39.5 160.9,38.4 160.9,35.1 
			165.6,30.2 		"/>
		<polygon class="st0" points="144.6,46.2 148.2,40.8 148.2,30.9 144.7,34.3 144.7,39 140.1,46.8 140.1,53.2 144.6,49.3 		"/>
	</g>
</g>
<g id="PMS_342">
	<g>
		<path class="st1" d="M231,60.8l7.1-5.6V45l-7.1-7.5v-7.7l-7.4-6.7l-3.5,0.1L220,20l-3.7-3.6l-10.2-1.8l-4.8,7.3l0.1-8l-14.2-3.6
			l-14.7,3.6l0,8.3l-4.7-5.2l-8.9-1.3l-7.1,7.2v6.8l-3.9-3.4l-6.9,6v4.7l-4.6,8.2v10.2l7.1,4.8v21.7l-3.7,3.3v11.2l4.2,2.5v18.1
			L87.5,47.6H15.1L31,84.5v142l-15.9,36.5h72.5v-102l85.1,102H231V98.7l3.7-2.5V85.1l-3.7-3.3V60.8z M171.7,32l4.4-4.5V18l9.5-2.4
			v11.4l-3.6,3.6v3.4l-10.3,2.2L171.7,32z M170.5,45v20.6l8.4-1.3l0-20.7l6.6-1.1v35L165,80V46l0.8-0.2L170.5,45z M140.1,53.2v-6.4
			l4.6-7.7v-4.8l3.5-3.4v9.9l-3.6,5.4v3.1L140.1,53.2z M159.6,135.9l-11.9-14.6V99l11.9-8.7V135.9z M159.6,81.1l-16.2,12.2v-5.9
			l3.7-3.3V58.2l3.3-2.9V74l5.1-3.8V50.9l4-3.5V81.1z M160.9,38.4l-4.8,1.1l-4.6,3.9v-4.1l3.7-5V25l5.7-4.9l4.7,0.7v9.3l-4.7,4.9
			V38.4z M165,142.5V88.4l20.6-2.3l0,81.6L165,142.5z"/>
		<polygon class="st1" points="234.9,256.5 236.7,256.5 236.7,262.9 238.9,262.9 238.9,256.5 240.6,256.5 240.6,254.7 234.9,254.7 
					"/>
		<polygon class="st1" points="243.7,258.2 243.8,258.2 245.6,262.9 246.5,262.9 248.5,258.2 248.5,258.2 249.1,262.9 251.2,262.9 
			250,254.7 247.9,254.7 246.1,259.1 244.4,254.7 242.3,254.7 240.9,262.9 243,262.9 		"/>
	</g>
</g>
<g id="Black">
</g>
</svg>
